<?xml version="1.0" encoding="utf-8"?>
<!-- Generator: Adobe Illustrator 27.0.0, SVG Export Plug-In . SVG Version: 6.00 Build 0)  -->
<svg version="1.1" id="Layer_1" xmlns="http://www.w3.org/2000/svg" xmlns:xlink="http://www.w3.org/1999/xlink" x="0px" y="0px"
	 viewBox="0 0 85 180" style="enable-background:new 0 0 85 180;" xml:space="preserve">
<style type="text/css">
	.st0{fill:#E52F7F;}
	.st1{fill:#FFFFFF;}
</style>
<g>
	<g>
		<circle class="st0" cx="48.1" cy="47.46" r="27.2"/>
		<g>
			<path class="st1" d="M36.79,55.38l2.52-2.32c0,0-3.51-6.82,0.69-12.51s10.04-3.61,10.48-3.71l1.34-3.21c0,0-9.69-2.62-14.69,4.45
				S34.62,52.86,36.79,55.38z"/>
			<path class="st1" d="M55.88,40.69l1.73-3.36c0,0,7.57,5.34,2.77,17.36c0,0-4.7,7.32-12.81,7.07v-3.61c0,0,7.12-0.2,9.94-6.23
				C60.33,45.89,55.98,40.3,55.88,40.69z"/>
			<polygon class="st1" points="43.02,57.01 40.34,58.93 42.64,60.57 			"/>
		</g>
	</g>
	<path class="st0" d="M42.04,73.16c0,0,0.23,14.32,2.47,21.01c0,0,5.18,17.7,1.09,24.16l-10.15,17.8l-3.16-1.19l-3.82,6.46
		l-2.9-1.85l-4.66,8.04h-1.27l-5.14,7.52l1.32,1.05l-4.32,6.79c0,0-0.99,2.11,0.66,3.16s5.9,3.56,5.9,3.56s1.75,0.69,3.16-1.38
		l6.03-10.09c0,0,0.2-0.73,2.27,0.23l1.68-0.59l1.35-2.37l-0.1-1.45l1.09-1.88l4.32,2.54l1.75-2.47l-4.25-2.34l5.67-9.96l-1.52-0.91
		l10.48-18.67c0,0,2.37-7.32,2.18-11.87c-0.2-4.55,0-5.34-3.26-16.02c-3.26-10.68-2.08-17.8-2.08-17.8L42.04,73.16z"/>
	<circle class="st1" cx="21.01" cy="150.57" r="0.8"/>
	<circle class="st1" cx="24.68" cy="152.67" r="0.8"/>
	<circle class="st1" cx="28.64" cy="154.96" r="0.8"/>
	<circle class="st1" cx="16.57" cy="160.84" r="0.8"/>
	<circle class="st1" cx="20.72" cy="163.02" r="0.8"/>
	<path class="st1" d="M31.68,142.25l1.11-1.93c0,0,2.87,0.53,3.74,2.24l-1.19,1.47L31.68,142.25z"/>
	<path class="st0" d="M53.25,20.75l5.74-10.82l14.34,7.32l-4.45,10.34c0,0-1.29-1.02-2.67-0.96l-0.59,0.86L53.25,20.75z"/>
</g>
</svg>
