<svg width="46" height="46" viewBox="0 0 46 46" fill="none" xmlns="http://www.w3.org/2000/svg">
<path fill-rule="evenodd" clip-rule="evenodd" d="M23 46C35.7024 46 46 35.7024 46 23C46 10.2974 35.7024 0 23 0C10.2974 0 0 10.2974 0 23C0 35.7024 10.2974 46 23 46ZM13.9751 15.2198C13.8 15.6425 13.8 16.1783 13.8 17.25V28.75C13.8 29.8216 13.8 30.3575 13.9751 30.7802C14.2085 31.3437 14.6563 31.7915 15.2198 32.025C15.6425 32.2 16.1783 32.2 17.25 32.2C18.3217 32.2 18.8575 32.2 19.2802 32.025C19.8437 31.7915 20.2915 31.3437 20.525 30.7802C20.7 30.3575 20.7 29.8216 20.7 28.75V17.25C20.7 16.1783 20.7 15.6425 20.525 15.2198C20.2915 14.6563 19.8437 14.2085 19.2802 13.9751C18.8575 13.8 18.3217 13.8 17.25 13.8C16.1783 13.8 15.6425 13.8 15.2198 13.9751C14.6563 14.2085 14.2085 14.6563 13.9751 15.2198ZM25.475 15.2198C25.3 15.6425 25.3 16.1783 25.3 17.25V28.75C25.3 29.8216 25.3 30.3575 25.475 30.7802C25.7085 31.3437 26.1563 31.7915 26.7198 32.025C27.1425 32.2 27.6784 32.2 28.75 32.2C29.8216 32.2 30.3575 32.2 30.7802 32.025C31.3437 31.7915 31.7915 31.3437 32.025 30.7802C32.2 30.3575 32.2 29.8216 32.2 28.75V17.25C32.2 16.1783 32.2 15.6425 32.025 15.2198C31.7915 14.6563 31.3437 14.2085 30.7802 13.9751C30.3575 13.8 29.8216 13.8 28.75 13.8C27.6784 13.8 27.1425 13.8 26.7198 13.9751C26.1563 14.2085 25.7085 14.6563 25.475 15.2198Z" fill="#413BCE"/>
</svg>
